<svg xmlns="http://www.w3.org/2000/svg" xmlns:xlink="http://www.w3.org/1999/xlink" preserveAspectRatio="xMidYMid" width="138" height="29" viewBox="0 0 138 29">
  <defs>
    <style>
      .cls-1 {
        fill: #fff;
      }

      .cls-1, .cls-2 {
        fill-rule: evenodd;
      }

      .cls-2 {
        fill: #4971ff;
      }
    </style>
  </defs>
  <path d="M134.005,13.117 C132.078,11.682 129.741,10.739 127.732,10.739 C126.461,10.739 125.805,11.231 125.805,12.010 C125.805,12.748 126.584,13.199 128.880,14.101 C132.078,15.372 135.071,16.889 135.071,20.579 C135.071,24.843 131.873,28.533 125.477,28.533 C121.254,28.533 117.195,27.057 114.530,24.679 L118.384,20.128 C120.516,22.055 123.509,23.121 125.764,23.121 C127.076,23.121 127.732,22.588 127.732,21.768 C127.732,20.989 126.871,20.538 124.698,19.677 C121.328,18.344 118.713,16.857 118.488,13.650 L118.016,13.650 C113.752,13.650 111.005,16.028 109.611,21.317 L107.806,28.000 L100.017,28.000 L105.962,5.819 L113.752,5.819 L112.563,10.288 C114.695,7.131 117.278,5.204 120.886,5.450 L120.026,8.633 C121.626,6.619 124.406,5.327 128.142,5.327 C132.160,5.327 135.727,6.803 137.736,8.443 L134.005,13.117 ZM89.029,28.533 C82.264,28.533 78.164,24.064 78.164,18.201 C78.164,11.518 83.781,5.327 91.202,5.327 C98.008,5.327 102.108,9.796 102.108,15.618 C102.108,22.342 96.491,28.533 89.029,28.533 ZM90.792,11.805 C87.717,11.805 85.626,15.044 85.626,17.914 C85.626,20.456 87.184,22.055 89.480,22.055 C92.555,22.055 94.646,18.816 94.646,15.905 C94.646,13.404 93.088,11.805 90.792,11.805 ZM79.394,12.092 L74.228,12.092 L72.342,19.062 C72.219,19.595 72.137,20.087 72.137,20.415 C72.137,21.317 72.670,21.809 73.900,21.809 C74.761,21.809 75.704,21.604 76.852,21.194 L75.130,27.672 C73.736,28.164 72.137,28.451 70.538,28.451 C66.028,28.451 63.814,26.483 63.814,23.203 C63.814,22.301 63.937,21.358 64.224,20.292 L66.438,12.092 L63.814,12.092 L65.495,5.819 L68.119,5.819 L69.636,0.202 L77.426,0.202 L75.909,5.819 L81.075,5.819 L79.394,12.092 ZM50.325,28.533 C43.560,28.533 39.460,24.064 39.460,18.201 C39.460,11.518 45.077,5.327 52.498,5.327 C59.304,5.327 63.404,9.796 63.404,15.618 C63.404,22.342 57.787,28.533 50.325,28.533 ZM52.088,11.805 C49.013,11.805 46.922,15.044 46.922,17.914 C46.922,20.456 48.480,22.055 50.776,22.055 C53.851,22.055 55.942,18.816 55.942,15.905 C55.942,13.404 54.384,11.805 52.088,11.805 Z" class="cls-1"/>
  <path d="M39.133,15.946 L35.894,28.000 L28.145,28.000 L31.220,16.397 C31.384,15.823 31.507,15.085 31.507,14.593 C31.507,13.117 30.769,12.256 29.129,12.256 C27.038,12.256 25.766,13.732 25.070,16.274 L21.912,28.000 L14.122,28.000 L17.238,16.397 C17.402,15.823 17.525,15.085 17.525,14.593 C17.525,13.117 16.746,12.006 15.147,12.006 C20.216,12.006 4.358,12.018 4.358,12.018 L6.086,5.819 L13.876,5.819 L13.220,8.279 C14.737,6.721 16.787,5.327 19.411,5.327 C22.445,5.327 24.372,6.885 25.193,9.181 C27.284,6.803 29.990,5.327 33.229,5.327 C37.452,5.327 39.789,7.869 39.789,11.928 C39.789,13.117 39.502,14.552 39.133,15.946 ZM11.170,16.000 C11.142,16.091 11.114,16.180 11.088,16.274 L7.931,28.000 L0.141,28.000 L3.358,16.000 L11.170,16.000 Z" class="cls-2"/>
</svg>
